<svg xmlns="http://www.w3.org/2000/svg" width="200" height="63" viewBox="0 0 200 63" fill="none"><rect x="55.7146" y="28.4692" width="42.82" height="8.92083" transform="rotate(128.101 55.7146 28.4692)" fill="#71C74C"></rect><rect x="33.6958" y="56.5493" width="42.82" height="8.92083" transform="rotate(-141.899 33.6958 56.5493)" fill="#00B0E6"></rect><rect x="10.9731" y="27.6992" width="34.1384" height="8.92083" transform="rotate(-51.8987 10.9731 27.6992)" fill="#FF3E2C"></rect><rect x="5.61597" y="34.5308" width="9.08247" height="8.92083" transform="rotate(-51.8987 5.61597 34.5308)" fill="#E1213A"></rect><rect x="27.5242" y="6.59082" width="42.82" height="8.92083" transform="rotate(37.8621 27.5242 6.59082)" fill="#FF8C1F"></rect><rect x="33.6958" y="56.5493" width="8.71268" height="8.92083" transform="rotate(-141.899 33.6958 56.5493)" fill="#00ABD1"></rect><rect x="55.7146" y="28.4692" width="9.81695" height="8.92083" transform="rotate(128.101 55.7146 28.4692)" fill="#73BA28"></rect><rect x="27.5242" y="6.59082" width="8.93912" height="8.92083" transform="rotate(37.8621 27.5242 6.59082)" fill="#FF6F00"></rect><path d="M70.6281 18.4065C70.6281 17.6732 70.5275 17.1341 70.3262 16.789C70.1249 16.4295 69.7223 16.2498 69.1184 16.2498H68.7518V15.7538H74.4454C75.8544 15.7538 77.1197 16.0485 78.2411 16.638C79.377 17.2131 79.9449 18.3562 79.9449 20.0671C79.9449 21.1886 79.6502 22.0584 79.0607 22.6767C78.4856 23.2806 77.8314 23.6831 77.0981 23.8844C76.3648 24.0857 75.6963 24.1864 75.0924 24.1864H72.8063V29.9878H70.6281V18.4065ZM74.3376 23.3884C74.812 23.3884 75.2937 23.2806 75.7825 23.0649C76.2858 22.8348 76.7027 22.461 77.0334 21.9434C77.3785 21.4258 77.551 20.7644 77.551 19.9593C77.551 19.1541 77.3785 18.4928 77.0334 17.9752C76.7027 17.4576 76.293 17.0909 75.8041 16.8753C75.3153 16.6452 74.8336 16.5302 74.3591 16.5302C73.8559 16.5302 73.3383 16.6021 72.8063 16.7459V23.3884H74.3376ZM82.4379 18.4065C82.4379 17.6732 82.3372 17.1341 82.1359 16.789C81.9347 16.4295 81.5321 16.2498 80.9282 16.2498H80.5616V15.7538H89.8352C91.0574 15.7538 91.6684 16.3289 91.6684 17.4791V19.1613H91.1724C91.1724 17.4791 90.2738 16.638 88.4765 16.638H84.6161V22.2022H90.3744V23.0865H84.6161V29.1036H88.3687C89.3033 29.1036 90.0437 28.9238 90.5901 28.5644C91.1508 28.1906 91.6037 27.5723 91.9488 26.7097L92.4232 26.8391L91.7115 28.8016C91.5678 29.1898 91.3665 29.4846 91.1077 29.6859C90.8489 29.8871 90.4894 29.9878 90.0293 29.9878H82.4379V18.4065ZM100.506 30.4191C99.1544 30.4191 97.961 30.0884 96.9258 29.4271C95.905 28.7657 95.1142 27.8599 94.5535 26.7097C93.9927 25.5594 93.7124 24.2798 93.7124 22.8708C93.7124 21.4618 93.9927 20.1821 94.5535 19.0319C95.1142 17.8817 95.905 16.9759 96.9258 16.3145C97.961 15.6531 99.1544 15.3225 100.506 15.3225C101.857 15.3225 103.044 15.6531 104.064 16.3145C105.1 16.9759 105.898 17.8817 106.458 19.0319C107.019 20.1821 107.299 21.4618 107.299 22.8708C107.299 24.2798 107.019 25.5594 106.458 26.7097C105.898 27.8599 105.1 28.7657 104.064 29.4271C103.044 30.0884 101.857 30.4191 100.506 30.4191ZM100.506 29.5349C101.886 29.5349 102.964 28.9454 103.741 27.7664C104.532 26.5731 104.927 24.9412 104.927 22.8708C104.927 20.8004 104.532 19.1757 103.741 17.9967C102.964 16.8034 101.886 16.2067 100.506 16.2067C99.1256 16.2067 98.0401 16.8034 97.2493 17.9967C96.4729 19.1757 96.0847 20.8004 96.0847 22.8708C96.0847 24.9412 96.4729 26.5731 97.2493 27.7664C98.0401 28.9454 99.1256 29.5349 100.506 29.5349ZM110.059 18.4065C110.059 17.6732 109.958 17.1341 109.757 16.789C109.556 16.4295 109.153 16.2498 108.549 16.2498H108.183V15.7538H113.876C115.285 15.7538 116.551 16.0485 117.672 16.638C118.808 17.2131 119.376 18.3562 119.376 20.0671C119.376 21.1886 119.081 22.0584 118.492 22.6767C117.917 23.2806 117.262 23.6831 116.529 23.8844C115.796 24.0857 115.127 24.1864 114.523 24.1864H112.237V29.9878H110.059V18.4065ZM113.769 23.3884C114.243 23.3884 114.725 23.2806 115.213 23.0649C115.717 22.8348 116.134 22.461 116.464 21.9434C116.809 21.4258 116.982 20.7644 116.982 19.9593C116.982 19.1541 116.809 18.4928 116.464 17.9752C116.134 17.4576 115.724 17.0909 115.235 16.8753C114.746 16.6452 114.265 16.5302 113.79 16.5302C113.287 16.5302 112.769 16.6021 112.237 16.7459V23.3884H113.769ZM121.869 18.4065C121.869 17.6732 121.768 17.1341 121.567 16.789C121.366 16.4295 120.963 16.2498 120.359 16.2498H119.993V15.7538H122.106C122.624 15.7538 123.019 15.8257 123.292 15.9695C123.565 16.1132 123.76 16.372 123.875 16.7459C123.99 17.1197 124.047 17.6732 124.047 18.4065V29.1036H131.639V29.9878H121.869V18.4065ZM133.342 18.4065C133.342 17.6732 133.241 17.1341 133.04 16.789C132.838 16.4295 132.436 16.2498 131.832 16.2498H131.465V15.7538H140.739C141.961 15.7538 142.572 16.3289 142.572 17.4791V19.1613H142.076C142.076 17.4791 141.178 16.638 139.38 16.638H135.52V22.2022H141.278V23.0865H135.52V29.1036H139.272C140.207 29.1036 140.947 28.9238 141.494 28.5644C142.055 28.1906 142.507 27.5723 142.853 26.7097L143.327 26.8391L142.615 28.8016C142.472 29.1898 142.27 29.4846 142.011 29.6859C141.753 29.8871 141.393 29.9878 140.933 29.9878H133.342V18.4065ZM144.918 20.52C145.479 20.1462 145.91 19.7292 146.212 19.2692C146.514 18.8091 146.665 18.2771 146.665 17.6732L146.104 17.8458C145.745 17.8458 145.45 17.7307 145.22 17.5007C144.99 17.2706 144.875 16.9759 144.875 16.6165C144.875 16.2426 144.99 15.9335 145.22 15.6891C145.464 15.4447 145.781 15.3225 146.169 15.3225C146.615 15.3225 146.96 15.4662 147.204 15.7538C147.463 16.027 147.592 16.4008 147.592 16.8753C147.592 17.7667 147.391 18.5431 146.988 19.2045C146.6 19.8515 145.996 20.4122 145.177 20.8867L144.918 20.52ZM154.313 30.3544C153.508 30.3544 152.724 30.2466 151.962 30.0309C151.214 29.8153 150.596 29.5133 150.107 29.1251C149.633 28.7225 149.395 28.2625 149.395 27.7449V25.3725H149.848C150.078 26.8103 150.546 27.8527 151.25 28.4997C151.955 29.1467 152.925 29.4702 154.162 29.4702C154.952 29.4702 155.614 29.2833 156.146 28.9095C156.678 28.5213 156.944 27.9821 156.944 27.292C156.944 26.6881 156.757 26.1705 156.383 25.7392C156.024 25.2934 155.434 24.8334 154.615 24.3589L151.962 22.7845C151.027 22.2382 150.366 21.6774 149.978 21.1023C149.59 20.5272 149.395 19.8371 149.395 19.0319C149.395 17.9248 149.791 17.0406 150.582 16.3792C151.387 15.7035 152.444 15.3656 153.752 15.3656C154.514 15.3656 155.254 15.4734 155.973 15.6891C156.707 15.8904 157.303 16.1923 157.763 16.5949C158.238 16.9831 158.475 17.436 158.475 17.9536V20.3259H158.022C157.778 18.8881 157.318 17.8529 156.642 17.2203C155.966 16.5733 155.024 16.2498 153.817 16.2498C153.127 16.2498 152.537 16.4511 152.048 16.8537C151.559 17.2563 151.315 17.7739 151.315 18.4065C151.315 18.9816 151.495 19.4633 151.854 19.8515C152.214 20.2253 152.817 20.671 153.666 21.1886L156.318 22.763C157.296 23.3381 157.993 23.8916 158.41 24.4236C158.827 24.9412 159.036 25.5882 159.036 26.3646C159.036 27.5867 158.612 28.5572 157.763 29.2761C156.929 29.995 155.779 30.3544 154.313 30.3544ZM70.6281 36.4065C70.6281 35.6732 70.5275 35.1341 70.3262 34.789C70.1249 34.4295 69.7223 34.2498 69.1184 34.2498H68.7518V33.7538H77.4647C78.6869 33.7538 79.2979 34.3289 79.2979 35.4791V37.1613H78.8019C78.8019 35.4791 77.9033 34.638 76.106 34.638H72.8063V40.3101H77.6373V41.1943H72.8063V47.9878H70.6281V36.4065ZM87.3482 48.4191C85.9967 48.4191 84.8033 48.0884 83.7681 47.4271C82.7473 46.7657 81.9565 45.8599 81.3958 44.7097C80.835 43.5594 80.5547 42.2798 80.5547 40.8708C80.5547 39.4618 80.835 38.1821 81.3958 37.0319C81.9565 35.8817 82.7473 34.9759 83.7681 34.3145C84.8033 33.6531 85.9967 33.3225 87.3482 33.3225C88.6997 33.3225 89.8858 33.6531 90.9067 34.3145C91.9419 34.9759 92.7398 35.8817 93.3006 37.0319C93.8613 38.1821 94.1417 39.4618 94.1417 40.8708C94.1417 42.2798 93.8613 43.5594 93.3006 44.7097C92.7398 45.8599 91.9419 46.7657 90.9067 47.4271C89.8858 48.0884 88.6997 48.4191 87.3482 48.4191ZM87.3482 47.5349C88.7284 47.5349 89.8068 46.9454 90.5832 45.7664C91.3739 44.5731 91.7693 42.9412 91.7693 40.8708C91.7693 38.8004 91.3739 37.1757 90.5832 35.9967C89.8068 34.8034 88.7284 34.2067 87.3482 34.2067C85.9679 34.2067 84.8824 34.8034 84.0916 35.9967C83.3152 37.1757 82.927 38.8004 82.927 40.8708C82.927 42.9412 83.3152 44.5731 84.0916 45.7664C84.8824 46.9454 85.9679 47.5349 87.3482 47.5349ZM102.463 48.2035C100.45 48.2035 99.0124 47.6859 98.1497 46.6507C97.3014 45.6155 96.8773 44.0051 96.8773 41.8197V36.4065C96.8773 35.6876 96.7766 35.1556 96.5753 34.8106C96.3884 34.4511 96.0074 34.2642 95.4323 34.2498H95.0441V33.7538H97.1145C97.6321 33.7538 98.0275 33.8257 98.3007 33.9695C98.5738 34.1132 98.7679 34.372 98.883 34.7459C98.998 35.1197 99.0555 35.6732 99.0555 36.4065V42.4667C99.0555 44.0483 99.3502 45.256 99.9397 46.0899C100.529 46.9095 101.471 47.3192 102.765 47.3192C104.347 47.3192 105.461 46.8879 106.108 46.0252C106.769 45.1626 107.1 43.7607 107.1 41.8197V33.7538H108.027V41.8197C108.027 43.2863 107.862 44.4796 107.531 45.3998C107.201 46.32 106.625 47.0173 105.806 47.4918C105.001 47.9662 103.886 48.2035 102.463 48.2035ZM112.631 36.8378V47.9878H111.725V36.3418C111.725 35.666 111.574 35.1484 111.272 34.789C110.984 34.4295 110.488 34.2498 109.784 34.2498H109.59V33.7538H111.013C111.718 33.7538 112.307 33.8616 112.782 34.0773C113.271 34.293 113.687 34.6165 114.033 35.0478L121.538 44.2352V33.7538H122.465V48.1603H121.883L112.631 36.8378ZM126.207 36.4065C126.207 35.6732 126.107 35.1341 125.905 34.789C125.704 34.4295 125.302 34.2498 124.698 34.2498H124.331V33.7538H130.025C132.843 33.7538 134.978 34.372 136.43 35.6085C137.897 36.845 138.63 38.5703 138.63 40.7845C138.63 42.2079 138.321 43.466 137.702 44.5587C137.099 45.637 136.193 46.4781 134.985 47.082C133.777 47.6859 132.311 47.9878 130.585 47.9878H126.207V36.4065ZM130.521 47.2114C131.57 47.2114 132.512 46.9526 133.346 46.435C134.194 45.9174 134.856 45.1841 135.33 44.2352C135.805 43.2719 136.042 42.1504 136.042 40.8708C136.042 39.6199 135.805 38.5128 135.33 37.5495C134.856 36.5862 134.194 35.8458 133.346 35.3282C132.512 34.7962 131.556 34.5302 130.478 34.5302C129.859 34.5302 129.176 34.6308 128.429 34.8321V46.9526C129.191 47.1251 129.888 47.2114 130.521 47.2114ZM152.202 48.0956C150.376 48.0956 149.104 47.1611 148.385 45.292L147.846 43.9333H141.893L140.146 47.9878H139.133L145.258 33.7538H145.991L150.757 45.292C151.088 46.0684 151.418 46.6219 151.749 46.9526C152.094 47.2689 152.547 47.4558 153.108 47.5133V47.9878C152.849 48.0597 152.547 48.0956 152.202 48.0956ZM147.414 43.049L144.891 36.9457L142.238 43.049H147.414ZM156.367 34.638H154.534C152.765 34.638 151.881 35.4791 151.881 37.1613H151.407V35.4791C151.407 34.3289 152.018 33.7538 153.24 33.7538H163.29V34.638H158.524V47.9878H156.367V34.638ZM167.065 47.9878C166.548 47.9878 166.152 47.9159 165.879 47.7721C165.606 47.6283 165.412 47.3695 165.297 46.9957C165.182 46.6219 165.124 46.0684 165.124 45.3351V33.7538H167.303V45.3351C167.303 46.0684 167.403 46.6147 167.604 46.9742C167.806 47.3192 168.208 47.4918 168.812 47.4918H169.179V47.9878H167.065ZM176.883 48.4191C175.531 48.4191 174.338 48.0884 173.302 47.4271C172.282 46.7657 171.491 45.8599 170.93 44.7097C170.369 43.5594 170.089 42.2798 170.089 40.8708C170.089 39.4618 170.369 38.1821 170.93 37.0319C171.491 35.8817 172.282 34.9759 173.302 34.3145C174.338 33.6531 175.531 33.3225 176.883 33.3225C178.234 33.3225 179.42 33.6531 180.441 34.3145C181.476 34.9759 182.274 35.8817 182.835 37.0319C183.396 38.1821 183.676 39.4618 183.676 40.8708C183.676 42.2798 183.396 43.5594 182.835 44.7097C182.274 45.8599 181.476 46.7657 180.441 47.4271C179.42 48.0884 178.234 48.4191 176.883 48.4191ZM176.883 47.5349C178.263 47.5349 179.341 46.9454 180.118 45.7664C180.908 44.5731 181.304 42.9412 181.304 40.8708C181.304 38.8004 180.908 37.1757 180.118 35.9967C179.341 34.8034 178.263 34.2067 176.883 34.2067C175.502 34.2067 174.417 34.8034 173.626 35.9967C172.85 37.1757 172.461 38.8004 172.461 40.8708C172.461 42.9412 172.85 44.5731 173.626 45.7664C174.417 46.9454 175.502 47.5349 176.883 47.5349ZM187.428 36.8378V47.9878H186.522V36.3418C186.522 35.666 186.371 35.1484 186.069 34.789C185.782 34.4295 185.286 34.2498 184.581 34.2498H184.387V33.7538H185.81C186.515 33.7538 187.104 33.8616 187.579 34.0773C188.068 34.293 188.485 34.6165 188.83 35.0478L196.335 44.2352V33.7538H197.262V48.1603H196.68L187.428 36.8378Z" fill="black"></path></svg>